<svg xmlns="http://www.w3.org/2000/svg" width="64" height="64" viewBox="0 0 64 64">
  <rect width="64" height="64" rx="12" fill="#1e293b"/>
  <g transform="translate(32,32)" fill="none" stroke="#64748b" stroke-width="2.5" stroke-linecap="round" stroke-linejoin="round">
    <path d="M-14,2 C-14,-6 -8,-12 0,-12 C8,-12 14,-6 14,2 L14,6 C14,10 10,14 6,14 L4,14 L2,18 C1,20 -1,20 -2,18 L-4,14 L-6,14 C-10,14 -14,10 -14,6 Z"/>
    <circle cx="-6" cy="0" r="2" fill="#64748b"/>
    <circle cx="6" cy="0" r="2" fill="#64748b"/>
    <line x1="-6" y1="-5" x2="-6" y2="-3"/>
    <line x1="-8" y1="-4" x2="-4" y2="-4"/>
    <rect x="3" y="-7" width="6" height="6" rx="1"/>
  </g>
</svg>
