<svg xmlns="http://www.w3.org/2000/svg" width="400" height="600" viewBox="0 0 400 600">
  <defs>
    <linearGradient id="bg" x1="0" y1="0" x2="1" y2="1">
      <stop offset="0%" stop-color="#1e293b"/>
      <stop offset="100%" stop-color="#0f172a"/>
    </linearGradient>
    <pattern id="dots" x="0" y="0" width="30" height="30" patternUnits="userSpaceOnUse">
      <circle cx="15" cy="15" r="1" fill="#334155" opacity="0.5"/>
    </pattern>
  </defs>
  <rect width="400" height="600" fill="url(#bg)"/>
  <rect width="400" height="600" fill="url(#dots)"/>
  <g transform="translate(200,280)" fill="none" stroke="#475569" stroke-width="3" stroke-linecap="round" stroke-linejoin="round">
    <path d="M-28,4 C-28,-12 -16,-24 0,-24 C16,-24 28,-12 28,4 L28,12 C28,20 20,28 12,28 L8,28 L4,36 C2,40 -2,40 -4,36 L-8,28 L-12,28 C-20,28 -28,20 -28,12 Z"/>
    <circle cx="-12" cy="0" r="3.5" fill="#475569"/>
    <circle cx="12" cy="0" r="3.5" fill="#475569"/>
    <line x1="-12" y1="-10" x2="-12" y2="-5"/>
    <line x1="-15" y1="-7.5" x2="-9" y2="-7.5"/>
    <rect x="6" y="-14" width="12" height="12" rx="2"/>
  </g>
</svg>
